<?xml version="1.0" encoding="utf-8"?>
<!-- Generator: Adobe Illustrator 22.0.1, SVG Export Plug-In . SVG Version: 6.00 Build 0)  -->
<svg version="1.1" id="Capa_1" xmlns="http://www.w3.org/2000/svg" xmlns:xlink="http://www.w3.org/1999/xlink" x="0px" y="0px"
	 viewBox="0 0 585.2 585.2" style="enable-background:new 0 0 585.2 585.2;" xml:space="preserve">
<style type="text/css">
	.st0{fill:#FFFFFF;}
</style>
<g>
	<g id="Layer_1_134_">
		<g>
			<path class="st0" d="M489.6,37c-44.6,0-81.6,30.6-90.5,71.4H183.6C173.4,67.6,136.4,37,93.1,37C42.1,37,0,79,0,130
				c0,35.7,20.4,67.6,51,82.9v100.7c0,130,112.2,234.6,242.2,234.6c130.1,0,242.2-104.6,242.2-234.6V212.9
				c29.3-15.3,49.7-47.2,49.7-82.9C583.9,79,541.9,37,489.6,37z M169.6,229.5c0-14,11.5-26.8,26.8-26.8s26.8,11.5,26.8,26.8
				s-11.5,26.8-26.8,26.8S169.6,244.8,169.6,229.5z M290.7,502.4c-48.4,0-89.2-52.3-89.2-116s39.5-116,89.2-116
				c49.7,0,89.2,52.3,89.2,116S340.4,502.4,290.7,502.4z M386.3,256.3c-15.3,0-26.8-11.5-26.8-26.8c0-14,11.5-26.8,26.8-26.8
				c14,0,26.8,11.5,26.8,26.8S401.6,256.3,386.3,256.3z"/>
			<path class="st0" d="M244.8,337.9c-7.6,0-15.3,3.8-17.9,10.2c-2.6,7.6-1.3,15.3,3.8,20.4l45.9,45.9c7.6,7.6,20.4,7.6,28,0
				l45.9-45.9c5.1-5.1,7.6-12.8,3.8-20.4c-2.5-7.6-10.2-10.2-17.9-10.2H244.8z"/>
		</g>
	</g>
</g>
</svg>
